<svg xmlns="http://www.w3.org/2000/svg" height="1em" viewBox="0 0 512 512"><!--! Font Awesome Free 6.4.0 by @fontawesome - https://fontawesome.com License - https://fontawesome.com/license (Commercial License) Copyright 2023 Fonticons, Inc. --><path d="M 480 32 c 0 -12.9 -7.8 -24.6 -19.8 -29.6 s -25.7 -2.2 -34.9 6.9 L 381.7 53 c -48 48 -113.1 75 -181 75 H 192 H 160 H 64 c -35.3 0 -64 28.7 -64 64 v 96 c 0 35.3 28.7 64 64 64 l 0 128 c 0 17.7 14.3 32 32 32 h 64 c 17.7 0 32 -14.3 32 -32 V 352 l 8.7 0 c 67.9 0 133 27 181 75 l 43.6 43.6 c 9.2 9.2 22.9 11.9 34.9 6.9 s 19.8 -16.6 19.8 -29.6 V 300.4 c 18.6 -8.8 32 -32.5 32 -60.4 s -13.4 -51.6 -32 -60.4 V 32 z m -64 76.7 V 240 V 371.3 C 357.2 317.8 280.5 288 200.7 288 H 192 V 192 h 8.7 c 79.8 0 156.5 -29.8 215.3 -83.3 z"/>
    <path d="M 1.8 0.6 S 196.5 4.3 196.5 4.3" fill="rgb(255, 255, 255)"/>
  </svg>